<?xml version="1.0" encoding="UTF-8"?>
<svg width="24" height="24" viewBox="0 0 24 24" fill="none" xmlns="http://www.w3.org/2000/svg">
  <path d="M16.074 16.86c-.72.616-2.157 1.035-3.812 1.035-2.032 0-3.735-.632-4.187-1.483-.161.488-.198 1.046-.198 1.402 0 0-.106 1.75 1.111 2.968 0-.632.438-1.149.98-1.149.963 0 .963.964.957 1.743v.069c0 1.398.866 2.557 2.083 2.557 1.014 0 1.807-.817 2.025-1.93.105.113.2.235.284.364 1.009 1.369 1.51 2.563 1.51 2.563s.201-.981.201-2.203c0-1.806-.957-2.916-1.438-3.489 1.105-.321 1.828-.809 2.09-1.119-2.135.413-4.156.413-6.314-.413 2.517-.706 3.848-1.778 4.662-2.632a8.224 8.224 0 0 0 1.019-1.597c.105-.224.201-.452.284-.686.099.099.189.21.27.329.045.064.086.131.124.201.146.259.247.547.247.854 0 .642-.321 1.219-.828 1.616z" fill="currentColor"/>
  <path d="M16.8 7.2c-.488 2.486-3.257 5.143-6.171 6.245-.043.016-.086.034-.128.051.099-.099.189-.21.27-.329.045-.064.086-.131.124-.201.146-.259.247-.547.247-.854 0-.642-.321-1.219-.828-1.616-.72.616-2.157 1.035-3.812 1.035-2.032 0-3.735-.632-4.187-1.483-.161.488-.198 1.046-.198 1.402 0 0-.106 1.75 1.111 2.968 0-.632.438-1.149.98-1.149.963 0 .963.964.957 1.743v.069c0 1.398.866 2.557 2.083 2.557 1.014 0 1.807-.817 2.025-1.93.105.113.2.235.284.364 1.009 1.369 1.51 2.563 1.51 2.563s.201-.981.201-2.203c0-1.806-.957-2.916-1.438-3.489 1.105-.321 1.828-.809 2.09-1.119-2.135.413-4.156.413-6.314-.413 2.517-.706 3.848-1.778 4.662-2.632a8.224 8.224 0 0 0 1.019-1.597c1.41-2.847 1.457-5.367 1.457-5.367s2.532 3.257 2.156 6.386z" fill="currentColor"/>
</svg>
