<?xml version="1.0" encoding="UTF-8"?>
<svg width="24" height="24" viewBox="0 0 24 24" fill="none" xmlns="http://www.w3.org/2000/svg">
  <path d="M11.214 0.00500488C11.0731 0.0159347 10.9364 0.0459471 10.809 0.0940049L1.159 3.9C0.769 4.067 0.5 4.443 0.5 4.857V19.143C0.5 19.557 0.769 19.933 1.159 20.1L10.809 23.906C11.191 24.07 11.632 24.07 12.014 23.906L21.664 20.1C22.054 19.933 22.323 19.557 22.323 19.143V4.857C22.323 4.443 22.054 4.067 21.664 3.9L12.014 0.0940049C11.7573 0.00589139 11.4829 -0.0181383 11.214 0.00500488ZM11.411 2.813L19.411 6.036V17.964L11.411 21.188L3.411 17.964V6.036L11.411 2.813Z" fill="currentColor"/>
  <path d="M15.859 16.839L9.359 7.839C9.278 7.721 9.161 7.631 9.026 7.583C8.891 7.535 8.745 7.531 8.608 7.573C8.471 7.615 8.349 7.7 8.259 7.816C8.169 7.932 8.115 8.073 8.105 8.221L8.105 15.779C8.115 15.927 8.169 16.068 8.259 16.184C8.349 16.3 8.471 16.385 8.608 16.427C8.745 16.469 8.891 16.465 9.026 16.417C9.161 16.369 9.278 16.279 9.359 16.161L15.859 7.161C15.94 7.045 15.985 6.904 15.985 6.759C15.985 6.614 15.94 6.473 15.859 6.357L15.859 16.839Z" fill="currentColor"/>
</svg>
