<?xml version="1.0" encoding="UTF-8"?>
<svg width="24" height="24" viewBox="0 0 24 24" fill="none" xmlns="http://www.w3.org/2000/svg">
  <path d="M12 2L3 7V17L12 22L21 17V7L12 2ZM12 4.311L18.754 8.156L16.664 9.311L9.91 5.467L12 4.311ZM5.246 8.156L12 4.311L14.09 5.467L7.336 9.311L5.246 8.156ZM5 9.467L7.09 10.622L7.09 15.378L5 14.222V9.467ZM8.09 16.533L5 15.378V14.222L8.09 15.378V16.533ZM9.09 16.533V15.378L12.18 14.222V15.378L9.09 16.533ZM13.18 15.378V14.222L16.27 15.378V16.533L13.18 15.378ZM17.27 16.533L14.18 15.378V14.222L17.27 15.378V16.533ZM18.27 15.378L15.18 14.222V9.467L18.27 10.622V15.378ZM14.18 8.311L17.27 9.467L14.18 10.622L11.09 9.467L14.18 8.311ZM10.09 9.467L13.18 8.311L16.27 9.467L13.18 10.622L10.09 9.467ZM6.09 9.467L9.18 8.311L12.27 9.467L9.18 10.622L6.09 9.467Z" fill="currentColor"/>
</svg>
